<?xml version="1.0" standalone="no"?>
<!DOCTYPE svg PUBLIC "-//W3C//DTD SVG 20010904//EN"
 "http://www.w3.org/TR/2001/REC-SVG-20010904/DTD/svg10.dtd">
<svg version="1.0" xmlns="http://www.w3.org/2000/svg"
 width="800.000000pt" height="600.000000pt" viewBox="0 0 800.000000 600.000000"
 preserveAspectRatio="xMidYMid meet">

<g transform="translate(0.000000,600.000000) scale(0.100000,-0.100000)"
fill="#000000" stroke="none">
<path d="M5227 5208 c-101 -9 -241 -52 -334 -103 -34 -19 -207 -128 -385 -243
-178 -115 -431 -278 -563 -362 -668 -426 -733 -476 -811 -626 -55 -104 -77
-195 -77 -314 0 -168 57 -317 165 -435 62 -67 190 -157 578 -407 107 -69 392
-252 632 -407 241 -155 472 -298 513 -317 393 -181 872 -55 1142 300 59 78
125 218 155 326 l23 85 0 860 c0 937 3 883 -56 1045 -67 182 -222 365 -399
470 -174 104 -372 147 -583 128z m274 -575 c82 -41 152 -110 192 -193 l32 -65
3 -789 c3 -877 5 -849 -64 -953 -66 -101 -181 -168 -310 -180 -114 -11 -162
12 -520 243 -175 113 -323 211 -329 218 -13 16 -480 316 -525 338 -19 9 -107
63 -195 121 -176 114 -201 142 -189 207 3 19 13 44 22 54 20 22 282 195 359
237 72 39 506 318 518 333 10 13 608 401 655 426 57 30 107 40 196 37 79 -2
100 -7 155 -34z"/>
<path d="M4197 1399 c-121 -28 -187 -135 -187 -303 0 -144 40 -231 128 -279
142 -77 306 -16 358 134 26 74 26 215 0 288 -25 73 -87 135 -157 155 -58 18
-85 18 -142 5z m144 -125 c39 -38 52 -84 51 -186 0 -108 -24 -167 -76 -192
-45 -21 -74 -20 -114 4 -51 31 -72 88 -72 195 0 75 4 99 23 135 40 81 128 101
188 44z"/>
<path d="M5298 1397 c-101 -29 -141 -79 -135 -171 3 -56 6 -62 49 -100 31 -29
73 -51 137 -75 127 -46 160 -93 106 -146 -20 -21 -34 -25 -80 -25 -49 0 -60 4
-86 29 -16 16 -29 39 -29 50 0 19 -6 21 -60 21 -54 0 -60 -2 -60 -20 0 -60 65
-136 137 -161 66 -23 170 -18 228 11 100 50 123 168 50 249 -35 38 -63 53
-167 91 -76 28 -108 54 -108 90 0 90 172 94 194 5 6 -23 11 -25 67 -25 l61 0
-7 33 c-24 114 -162 182 -297 144z"/>
<path d="M2460 1095 l0 -307 123 4 c133 5 176 18 229 75 52 54 72 117 72 228
0 111 -20 174 -72 228 -54 57 -96 71 -229 75 l-123 4 0 -307z m248 250 c47
-20 78 -50 105 -100 19 -34 22 -56 22 -150 0 -94 -3 -116 -22 -151 -45 -84
-105 -114 -230 -114 l-73 0 0 265 0 265 80 0 c50 0 95 -6 118 -15z"/>
<path d="M3020 1095 l0 -305 185 0 c178 0 185 1 185 20 0 19 -7 20 -160 20
l-160 0 0 125 0 125 140 0 c133 0 140 1 140 20 0 19 -7 20 -140 20 l-140 0 0
120 0 120 160 0 c153 0 160 1 160 20 0 19 -7 20 -185 20 l-185 0 0 -305z"/>
<path d="M3512 1213 c38 -104 88 -241 111 -306 39 -110 44 -117 67 -115 22 3
33 27 136 306 l111 302 -26 0 c-25 0 -29 -10 -121 -270 -52 -148 -97 -270
-100 -270 -3 0 -48 121 -100 270 -92 261 -96 270 -121 270 l-27 0 70 -187z"/>
<path d="M4610 1095 l0 -305 60 0 59 0 3 108 3 107 100 5 c115 6 162 24 203
78 21 28 27 48 30 101 3 77 -21 130 -77 168 -52 35 -95 43 -243 43 l-138 0 0
-305z m305 182 c20 -16 28 -35 32 -69 5 -40 2 -50 -19 -71 -26 -26 -102 -42
-163 -35 l-30 3 -3 98 -3 97 80 0 c69 0 84 -3 106 -23z"/>
</g>
</svg>
